<mxfile host="app.diagrams.net" agent="Mozilla/5.0 (Windows NT 10.0; Win64; x64) AppleWebKit/537.36 (KHTML, like Gecko) Chrome/136.0.0.0 Safari/537.36 Edg/136.0.0.0" version="27.1.1">
  <diagram name="第 1 页" id="cBxDJ5uTzZWAd_RzUhWE">
    <mxGraphModel dx="1500" dy="830" grid="1" gridSize="10" guides="1" tooltips="1" connect="1" arrows="1" fold="1" page="1" pageScale="1" pageWidth="827" pageHeight="1169" math="0" shadow="0">
      <root>
        <mxCell id="0" />
        <mxCell id="1" parent="0" />
        <mxCell id="m72gc2Hyg6_g233Kz7tN-1" value="&lt;font style=&quot;font-size: 16px;&quot;&gt;宿舍&lt;/font&gt;" style="rounded=0;whiteSpace=wrap;html=1;" vertex="1" parent="1">
          <mxGeometry x="420" y="480" width="80" height="40" as="geometry" />
        </mxCell>
        <mxCell id="m72gc2Hyg6_g233Kz7tN-2" value="&lt;font style=&quot;font-size: 16px;&quot;&gt;设备&lt;/font&gt;" style="rounded=0;whiteSpace=wrap;html=1;" vertex="1" parent="1">
          <mxGeometry x="640" y="510" width="80" height="40" as="geometry" />
        </mxCell>
        <mxCell id="m72gc2Hyg6_g233Kz7tN-3" value="&lt;p class=&quot;MsoNormal&quot;&gt;&lt;font face=&quot;Helvetica&quot; style=&quot;font-size: 16px;&quot;&gt;设备名称&lt;/font&gt;&lt;/p&gt;" style="ellipse;whiteSpace=wrap;html=1;" vertex="1" parent="1">
          <mxGeometry x="720" y="420" width="80" height="40" as="geometry" />
        </mxCell>
        <mxCell id="m72gc2Hyg6_g233Kz7tN-4" value="&lt;p class=&quot;MsoNormal&quot;&gt;&lt;font face=&quot;Helvetica&quot; style=&quot;font-size: 16px;&quot;&gt;在线状态&lt;/font&gt;&lt;/p&gt;" style="ellipse;whiteSpace=wrap;html=1;" vertex="1" parent="1">
          <mxGeometry x="747" y="470" width="80" height="40" as="geometry" />
        </mxCell>
        <mxCell id="m72gc2Hyg6_g233Kz7tN-5" value="&lt;p class=&quot;MsoNormal&quot;&gt;&lt;font face=&quot;Helvetica&quot; style=&quot;font-size: 16px;&quot;&gt;用户编号&lt;/font&gt;&lt;/p&gt;" style="ellipse;whiteSpace=wrap;html=1;" vertex="1" parent="1">
          <mxGeometry x="730" y="520" width="80" height="40" as="geometry" />
        </mxCell>
        <mxCell id="m72gc2Hyg6_g233Kz7tN-6" value="&lt;p class=&quot;MsoNormal&quot;&gt;&lt;font face=&quot;Helvetica&quot; style=&quot;font-size: 16px;&quot;&gt;最后活跃时间&lt;/font&gt;&lt;/p&gt;" style="ellipse;whiteSpace=wrap;html=1;" vertex="1" parent="1">
          <mxGeometry x="680" y="570" width="110" height="40" as="geometry" />
        </mxCell>
        <mxCell id="m72gc2Hyg6_g233Kz7tN-7" value="&lt;p class=&quot;MsoNormal&quot;&gt;&lt;font face=&quot;Helvetica&quot; style=&quot;font-size: 16px;&quot;&gt;所属产品编号&lt;/font&gt;&lt;/p&gt;" style="ellipse;whiteSpace=wrap;html=1;" vertex="1" parent="1">
          <mxGeometry x="610" y="404" width="110" height="40" as="geometry" />
        </mxCell>
        <mxCell id="m72gc2Hyg6_g233Kz7tN-8" value="&lt;p class=&quot;MsoNormal&quot;&gt;&lt;span style=&quot;color: rgb(0, 0, 0);&quot;&gt;&lt;font face=&quot;Helvetica&quot; style=&quot;font-size: 16px;&quot;&gt;创建时间&lt;/font&gt;&lt;/span&gt;&lt;/p&gt;" style="ellipse;whiteSpace=wrap;html=1;" vertex="1" parent="1">
          <mxGeometry x="580" y="570" width="80" height="40" as="geometry" />
        </mxCell>
        <mxCell id="m72gc2Hyg6_g233Kz7tN-9" value="" style="endArrow=none;html=1;rounded=0;entryX=0.395;entryY=0.955;entryDx=0;entryDy=0;entryPerimeter=0;exitX=0.25;exitY=0;exitDx=0;exitDy=0;" edge="1" parent="1" source="m72gc2Hyg6_g233Kz7tN-2" target="m72gc2Hyg6_g233Kz7tN-7">
          <mxGeometry width="50" height="50" relative="1" as="geometry">
            <mxPoint x="690" y="630" as="sourcePoint" />
            <mxPoint x="730" y="590" as="targetPoint" />
          </mxGeometry>
        </mxCell>
        <mxCell id="m72gc2Hyg6_g233Kz7tN-10" value="" style="endArrow=none;html=1;rounded=0;entryX=0;entryY=1;entryDx=0;entryDy=0;exitX=0.75;exitY=0;exitDx=0;exitDy=0;" edge="1" parent="1" source="m72gc2Hyg6_g233Kz7tN-2" target="m72gc2Hyg6_g233Kz7tN-3">
          <mxGeometry width="50" height="50" relative="1" as="geometry">
            <mxPoint x="720" y="649.5" as="sourcePoint" />
            <mxPoint x="778" y="590.5" as="targetPoint" />
          </mxGeometry>
        </mxCell>
        <mxCell id="m72gc2Hyg6_g233Kz7tN-11" value="" style="endArrow=none;html=1;rounded=0;entryX=0;entryY=0.5;entryDx=0;entryDy=0;exitX=1;exitY=0.25;exitDx=0;exitDy=0;" edge="1" parent="1" source="m72gc2Hyg6_g233Kz7tN-2" target="m72gc2Hyg6_g233Kz7tN-4">
          <mxGeometry width="50" height="50" relative="1" as="geometry">
            <mxPoint x="718" y="665.5" as="sourcePoint" />
            <mxPoint x="820" y="620" as="targetPoint" />
          </mxGeometry>
        </mxCell>
        <mxCell id="m72gc2Hyg6_g233Kz7tN-12" value="" style="endArrow=none;html=1;rounded=0;entryX=0;entryY=0.5;entryDx=0;entryDy=0;exitX=1;exitY=0.75;exitDx=0;exitDy=0;" edge="1" parent="1" source="m72gc2Hyg6_g233Kz7tN-2" target="m72gc2Hyg6_g233Kz7tN-5">
          <mxGeometry width="50" height="50" relative="1" as="geometry">
            <mxPoint x="718" y="680" as="sourcePoint" />
            <mxPoint x="850" y="654.5" as="targetPoint" />
          </mxGeometry>
        </mxCell>
        <mxCell id="m72gc2Hyg6_g233Kz7tN-13" value="" style="endArrow=none;html=1;rounded=0;entryX=0.293;entryY=0;entryDx=0;entryDy=0;entryPerimeter=0;exitX=0.607;exitY=0.995;exitDx=0;exitDy=0;exitPerimeter=0;" edge="1" parent="1" source="m72gc2Hyg6_g233Kz7tN-2" target="m72gc2Hyg6_g233Kz7tN-6">
          <mxGeometry width="50" height="50" relative="1" as="geometry">
            <mxPoint x="1030" y="520" as="sourcePoint" />
            <mxPoint x="832" y="700" as="targetPoint" />
          </mxGeometry>
        </mxCell>
        <mxCell id="m72gc2Hyg6_g233Kz7tN-14" value="" style="endArrow=none;html=1;rounded=0;entryX=0.5;entryY=0;entryDx=0;entryDy=0;exitX=0.25;exitY=1;exitDx=0;exitDy=0;" edge="1" parent="1" source="m72gc2Hyg6_g233Kz7tN-2" target="m72gc2Hyg6_g233Kz7tN-8">
          <mxGeometry width="50" height="50" relative="1" as="geometry">
            <mxPoint x="710" y="690" as="sourcePoint" />
            <mxPoint x="820" y="750" as="targetPoint" />
          </mxGeometry>
        </mxCell>
        <mxCell id="m72gc2Hyg6_g233Kz7tN-15" value="&lt;span style=&quot;font-size: 16px;&quot;&gt;安装&lt;/span&gt;" style="rhombus;whiteSpace=wrap;html=1;" vertex="1" parent="1">
          <mxGeometry x="520" y="495" width="80" height="60" as="geometry" />
        </mxCell>
        <mxCell id="m72gc2Hyg6_g233Kz7tN-16" value="" style="endArrow=none;html=1;rounded=0;entryX=0.5;entryY=1;entryDx=0;entryDy=0;exitX=0;exitY=0;exitDx=0;exitDy=0;" edge="1" parent="1" source="m72gc2Hyg6_g233Kz7tN-2" target="m72gc2Hyg6_g233Kz7tN-15">
          <mxGeometry width="50" height="50" relative="1" as="geometry">
            <mxPoint x="640" y="640" as="sourcePoint" />
            <mxPoint x="690" y="590" as="targetPoint" />
          </mxGeometry>
        </mxCell>
        <mxCell id="m72gc2Hyg6_g233Kz7tN-17" value="" style="endArrow=none;html=1;rounded=0;entryX=1;entryY=1;entryDx=0;entryDy=0;exitX=0.5;exitY=0;exitDx=0;exitDy=0;" edge="1" parent="1" source="m72gc2Hyg6_g233Kz7tN-15" target="m72gc2Hyg6_g233Kz7tN-1">
          <mxGeometry width="50" height="50" relative="1" as="geometry">
            <mxPoint x="638.95" y="540" as="sourcePoint" />
            <mxPoint x="638.95" y="500" as="targetPoint" />
          </mxGeometry>
        </mxCell>
        <mxCell id="m72gc2Hyg6_g233Kz7tN-20" value="&lt;p class=&quot;MsoNormal&quot;&gt;&lt;font face=&quot;Helvetica&quot; style=&quot;font-size: 16px;&quot;&gt;宿舍号&lt;/font&gt;&lt;/p&gt;" style="ellipse;whiteSpace=wrap;html=1;" vertex="1" parent="1">
          <mxGeometry x="350" y="400" width="80" height="40" as="geometry" />
        </mxCell>
        <mxCell id="m72gc2Hyg6_g233Kz7tN-21" value="&lt;p class=&quot;MsoNormal&quot;&gt;&lt;font face=&quot;Helvetica&quot; style=&quot;font-size: 16px;&quot;&gt;所在楼层&lt;/font&gt;&lt;/p&gt;" style="ellipse;whiteSpace=wrap;html=1;" vertex="1" parent="1">
          <mxGeometry x="430" y="386" width="80" height="40" as="geometry" />
        </mxCell>
        <mxCell id="m72gc2Hyg6_g233Kz7tN-23" value="&lt;p class=&quot;MsoNormal&quot;&gt;&lt;font face=&quot;Helvetica&quot; style=&quot;font-size: 16px;&quot;&gt;设备号&lt;/font&gt;&lt;/p&gt;" style="ellipse;whiteSpace=wrap;html=1;" vertex="1" parent="1">
          <mxGeometry x="360" y="565" width="80" height="40" as="geometry" />
        </mxCell>
        <mxCell id="m72gc2Hyg6_g233Kz7tN-24" value="&lt;p class=&quot;MsoNormal&quot;&gt;&lt;span style=&quot;font-size: 16px;&quot;&gt;所在楼栋&lt;/span&gt;&lt;/p&gt;" style="ellipse;whiteSpace=wrap;html=1;" vertex="1" parent="1">
          <mxGeometry x="510" y="404" width="100" height="40" as="geometry" />
        </mxCell>
        <mxCell id="m72gc2Hyg6_g233Kz7tN-26" value="&lt;p class=&quot;MsoNormal&quot;&gt;&lt;span style=&quot;font-size: 16px;&quot;&gt;宿舍编号&lt;/span&gt;&lt;/p&gt;" style="ellipse;whiteSpace=wrap;html=1;" vertex="1" parent="1">
          <mxGeometry x="450" y="565" width="80" height="40" as="geometry" />
        </mxCell>
        <mxCell id="m72gc2Hyg6_g233Kz7tN-34" value="" style="endArrow=none;html=1;rounded=0;exitX=0.5;exitY=0;exitDx=0;exitDy=0;entryX=0.372;entryY=1;entryDx=0;entryDy=0;entryPerimeter=0;" edge="1" parent="1" source="m72gc2Hyg6_g233Kz7tN-23" target="m72gc2Hyg6_g233Kz7tN-1">
          <mxGeometry width="50" height="50" relative="1" as="geometry">
            <mxPoint x="640" y="330" as="sourcePoint" />
            <mxPoint x="740" y="350" as="targetPoint" />
          </mxGeometry>
        </mxCell>
        <mxCell id="m72gc2Hyg6_g233Kz7tN-35" value="" style="endArrow=none;html=1;rounded=0;entryX=0.25;entryY=0;entryDx=0;entryDy=0;" edge="1" parent="1" source="m72gc2Hyg6_g233Kz7tN-20" target="m72gc2Hyg6_g233Kz7tN-1">
          <mxGeometry width="50" height="50" relative="1" as="geometry">
            <mxPoint x="684" y="370" as="sourcePoint" />
            <mxPoint x="784" y="390" as="targetPoint" />
          </mxGeometry>
        </mxCell>
        <mxCell id="m72gc2Hyg6_g233Kz7tN-36" value="" style="endArrow=none;html=1;rounded=0;exitX=0.5;exitY=1;exitDx=0;exitDy=0;exitPerimeter=0;entryX=0.382;entryY=-0.065;entryDx=0;entryDy=0;entryPerimeter=0;" edge="1" parent="1" source="m72gc2Hyg6_g233Kz7tN-21" target="m72gc2Hyg6_g233Kz7tN-1">
          <mxGeometry width="50" height="50" relative="1" as="geometry">
            <mxPoint x="722" y="324" as="sourcePoint" />
            <mxPoint x="590" y="460" as="targetPoint" />
          </mxGeometry>
        </mxCell>
        <mxCell id="m72gc2Hyg6_g233Kz7tN-37" value="" style="endArrow=none;html=1;rounded=0;exitX=0.4;exitY=1;exitDx=0;exitDy=0;entryX=0.622;entryY=-0.065;entryDx=0;entryDy=0;exitPerimeter=0;entryPerimeter=0;" edge="1" parent="1" source="m72gc2Hyg6_g233Kz7tN-24" target="m72gc2Hyg6_g233Kz7tN-1">
          <mxGeometry width="50" height="50" relative="1" as="geometry">
            <mxPoint x="770" y="360" as="sourcePoint" />
            <mxPoint x="730" y="430" as="targetPoint" />
          </mxGeometry>
        </mxCell>
        <mxCell id="m72gc2Hyg6_g233Kz7tN-38" value="" style="endArrow=none;html=1;rounded=0;exitX=0.332;exitY=0.065;exitDx=0;exitDy=0;exitPerimeter=0;" edge="1" parent="1" source="m72gc2Hyg6_g233Kz7tN-26">
          <mxGeometry width="50" height="50" relative="1" as="geometry">
            <mxPoint x="480" y="580" as="sourcePoint" />
            <mxPoint x="480" y="520" as="targetPoint" />
          </mxGeometry>
        </mxCell>
        <mxCell id="m72gc2Hyg6_g233Kz7tN-40" value="&lt;span style=&quot;font-size: 16px;&quot;&gt;1&lt;/span&gt;" style="text;html=1;align=center;verticalAlign=middle;whiteSpace=wrap;rounded=0;" vertex="1" parent="1">
          <mxGeometry x="270" y="455" width="60" height="30" as="geometry" />
        </mxCell>
        <mxCell id="m72gc2Hyg6_g233Kz7tN-41" value="&lt;span style=&quot;font-size: 16px;&quot;&gt;N&lt;/span&gt;" style="text;html=1;align=center;verticalAlign=middle;whiteSpace=wrap;rounded=0;" vertex="1" parent="1">
          <mxGeometry x="364" y="492" width="60" height="30" as="geometry" />
        </mxCell>
        <mxCell id="m72gc2Hyg6_g233Kz7tN-42" style="edgeStyle=orthogonalEdgeStyle;rounded=0;orthogonalLoop=1;jettySize=auto;html=1;exitX=0.5;exitY=1;exitDx=0;exitDy=0;" edge="1" parent="1" source="m72gc2Hyg6_g233Kz7tN-6" target="m72gc2Hyg6_g233Kz7tN-6">
          <mxGeometry relative="1" as="geometry" />
        </mxCell>
        <mxCell id="m72gc2Hyg6_g233Kz7tN-59" value="&lt;font style=&quot;font-size: 16px;&quot;&gt;用户&lt;/font&gt;" style="rounded=0;whiteSpace=wrap;html=1;" vertex="1" parent="1">
          <mxGeometry x="220" y="495" width="80" height="40" as="geometry" />
        </mxCell>
        <mxCell id="m72gc2Hyg6_g233Kz7tN-60" value="&lt;p class=&quot;MsoNormal&quot;&gt;&lt;font face=&quot;Helvetica&quot; style=&quot;font-size: 16px;&quot;&gt;用户编号&lt;/font&gt;&lt;/p&gt;" style="ellipse;whiteSpace=wrap;html=1;" vertex="1" parent="1">
          <mxGeometry x="184" y="551" width="80" height="40" as="geometry" />
        </mxCell>
        <mxCell id="m72gc2Hyg6_g233Kz7tN-61" value="&lt;p class=&quot;MsoNormal&quot;&gt;&lt;font face=&quot;Helvetica&quot; style=&quot;font-size: 16px;&quot;&gt;用户昵称&lt;/font&gt;&lt;/p&gt;" style="ellipse;whiteSpace=wrap;html=1;" vertex="1" parent="1">
          <mxGeometry x="149" y="426" width="80" height="40" as="geometry" />
        </mxCell>
        <mxCell id="m72gc2Hyg6_g233Kz7tN-62" value="&lt;p class=&quot;MsoNormal&quot;&gt;&lt;font face=&quot;Helvetica&quot; style=&quot;font-size: 16px;&quot;&gt;用户名&lt;/font&gt;&lt;/p&gt;" style="ellipse;whiteSpace=wrap;html=1;" vertex="1" parent="1">
          <mxGeometry x="270" y="555" width="80" height="40" as="geometry" />
        </mxCell>
        <mxCell id="m72gc2Hyg6_g233Kz7tN-63" value="&lt;p class=&quot;MsoNormal&quot;&gt;&lt;font face=&quot;Helvetica&quot; style=&quot;font-size: 16px;&quot;&gt;密码&lt;/font&gt;&lt;/p&gt;" style="ellipse;whiteSpace=wrap;html=1;" vertex="1" parent="1">
          <mxGeometry x="115" y="468" width="80" height="40" as="geometry" />
        </mxCell>
        <mxCell id="m72gc2Hyg6_g233Kz7tN-64" value="&lt;p class=&quot;MsoNormal&quot;&gt;&lt;font style=&quot;font-size: 16px;&quot;&gt;手机号&lt;/font&gt;&lt;/p&gt;" style="ellipse;whiteSpace=wrap;html=1;" vertex="1" parent="1">
          <mxGeometry x="123" y="514" width="80" height="40" as="geometry" />
        </mxCell>
        <mxCell id="m72gc2Hyg6_g233Kz7tN-66" value="&lt;p class=&quot;MsoNormal&quot;&gt;&lt;font face=&quot;Helvetica&quot; style=&quot;font-size: 16px;&quot;&gt;创建时间&lt;/font&gt;&lt;/p&gt;" style="ellipse;whiteSpace=wrap;html=1;" vertex="1" parent="1">
          <mxGeometry x="225" y="404" width="90" height="40" as="geometry" />
        </mxCell>
        <mxCell id="m72gc2Hyg6_g233Kz7tN-67" value="" style="endArrow=none;html=1;rounded=0;exitX=0.5;exitY=0;exitDx=0;exitDy=0;entryX=0.75;entryY=1;entryDx=0;entryDy=0;" edge="1" parent="1" source="m72gc2Hyg6_g233Kz7tN-62" target="m72gc2Hyg6_g233Kz7tN-59">
          <mxGeometry width="50" height="50" relative="1" as="geometry">
            <mxPoint x="150" y="585" as="sourcePoint" />
            <mxPoint x="200" y="535" as="targetPoint" />
          </mxGeometry>
        </mxCell>
        <mxCell id="m72gc2Hyg6_g233Kz7tN-69" value="" style="endArrow=none;html=1;rounded=0;exitX=0.667;exitY=0.01;exitDx=0;exitDy=0;entryX=0.25;entryY=1;entryDx=0;entryDy=0;exitPerimeter=0;" edge="1" parent="1" source="m72gc2Hyg6_g233Kz7tN-60" target="m72gc2Hyg6_g233Kz7tN-59">
          <mxGeometry width="50" height="50" relative="1" as="geometry">
            <mxPoint x="138" y="551" as="sourcePoint" />
            <mxPoint x="200" y="505" as="targetPoint" />
          </mxGeometry>
        </mxCell>
        <mxCell id="m72gc2Hyg6_g233Kz7tN-70" value="" style="endArrow=none;html=1;rounded=0;exitX=1;exitY=0.5;exitDx=0;exitDy=0;entryX=0;entryY=0.5;entryDx=0;entryDy=0;" edge="1" parent="1" source="m72gc2Hyg6_g233Kz7tN-64" target="m72gc2Hyg6_g233Kz7tN-59">
          <mxGeometry width="50" height="50" relative="1" as="geometry">
            <mxPoint x="120" y="495" as="sourcePoint" />
            <mxPoint x="210" y="475" as="targetPoint" />
          </mxGeometry>
        </mxCell>
        <mxCell id="m72gc2Hyg6_g233Kz7tN-71" value="" style="endArrow=none;html=1;rounded=0;exitX=1;exitY=1;exitDx=0;exitDy=0;entryX=0;entryY=0.25;entryDx=0;entryDy=0;" edge="1" parent="1" source="m72gc2Hyg6_g233Kz7tN-63" target="m72gc2Hyg6_g233Kz7tN-59">
          <mxGeometry width="50" height="50" relative="1" as="geometry">
            <mxPoint x="150" y="445" as="sourcePoint" />
            <mxPoint x="240" y="525" as="targetPoint" />
          </mxGeometry>
        </mxCell>
        <mxCell id="m72gc2Hyg6_g233Kz7tN-73" value="" style="endArrow=none;html=1;rounded=0;exitX=0.722;exitY=0.96;exitDx=0;exitDy=0;entryX=0.5;entryY=0;entryDx=0;entryDy=0;exitPerimeter=0;" edge="1" parent="1" source="m72gc2Hyg6_g233Kz7tN-61" target="m72gc2Hyg6_g233Kz7tN-59">
          <mxGeometry width="50" height="50" relative="1" as="geometry">
            <mxPoint x="235" y="385" as="sourcePoint" />
            <mxPoint x="265" y="481" as="targetPoint" />
          </mxGeometry>
        </mxCell>
        <mxCell id="m72gc2Hyg6_g233Kz7tN-74" value="" style="endArrow=none;html=1;rounded=0;exitX=0.38;exitY=1.02;exitDx=0;exitDy=0;entryX=0.75;entryY=0;entryDx=0;entryDy=0;exitPerimeter=0;" edge="1" parent="1" source="m72gc2Hyg6_g233Kz7tN-66" target="m72gc2Hyg6_g233Kz7tN-59">
          <mxGeometry width="50" height="50" relative="1" as="geometry">
            <mxPoint x="285" y="375" as="sourcePoint" />
            <mxPoint x="280" y="495" as="targetPoint" />
          </mxGeometry>
        </mxCell>
        <mxCell id="m72gc2Hyg6_g233Kz7tN-76" value="&lt;span style=&quot;font-size: 16px;&quot;&gt;管理&lt;/span&gt;" style="rhombus;whiteSpace=wrap;html=1;" vertex="1" parent="1">
          <mxGeometry x="315" y="450" width="80" height="60" as="geometry" />
        </mxCell>
        <mxCell id="m72gc2Hyg6_g233Kz7tN-77" value="" style="endArrow=none;html=1;rounded=0;exitX=1;exitY=0;exitDx=0;exitDy=0;entryX=0;entryY=0.5;entryDx=0;entryDy=0;" edge="1" parent="1" source="m72gc2Hyg6_g233Kz7tN-59" target="m72gc2Hyg6_g233Kz7tN-76">
          <mxGeometry width="50" height="50" relative="1" as="geometry">
            <mxPoint x="340" y="579" as="sourcePoint" />
            <mxPoint x="442" y="570" as="targetPoint" />
          </mxGeometry>
        </mxCell>
        <mxCell id="m72gc2Hyg6_g233Kz7tN-78" value="" style="endArrow=none;html=1;rounded=0;exitX=1;exitY=0.5;exitDx=0;exitDy=0;entryX=0;entryY=1;entryDx=0;entryDy=0;" edge="1" parent="1" source="m72gc2Hyg6_g233Kz7tN-76" target="m72gc2Hyg6_g233Kz7tN-1">
          <mxGeometry width="50" height="50" relative="1" as="geometry">
            <mxPoint x="500" y="570" as="sourcePoint" />
            <mxPoint x="560" y="580" as="targetPoint" />
          </mxGeometry>
        </mxCell>
        <mxCell id="m72gc2Hyg6_g233Kz7tN-81" value="&lt;span style=&quot;font-size: 16px;&quot;&gt;1&lt;/span&gt;" style="text;html=1;align=center;verticalAlign=middle;whiteSpace=wrap;rounded=0;" vertex="1" parent="1">
          <mxGeometry x="490" y="477" width="60" height="30" as="geometry" />
        </mxCell>
        <mxCell id="m72gc2Hyg6_g233Kz7tN-82" value="&lt;span style=&quot;font-size: 16px;&quot;&gt;N&lt;/span&gt;" style="text;html=1;align=center;verticalAlign=middle;whiteSpace=wrap;rounded=0;" vertex="1" parent="1">
          <mxGeometry x="581" y="494" width="60" height="30" as="geometry" />
        </mxCell>
      </root>
    </mxGraphModel>
  </diagram>
</mxfile>
